<svg width="2747" height="2593" viewBox="0 0 2747 2593" fill="none" xmlns="http://www.w3.org/2000/svg">
<rect width="2747" height="2593" fill="black" fill-opacity="0"/>
<mask id="mask0" mask-type="alpha" maskUnits="userSpaceOnUse" x="0" y="0" width="2747" height="2593">
<ellipse cx="1373.5" cy="1296.5" rx="1373.5" ry="1296.5" fill="#13192D"/>
</mask>
<g mask="url(#mask0)">
<ellipse cx="1373.5" cy="1296.5" rx="1373.5" ry="1296.5" fill="#13192D"/>
<rect x="576.933" y="159.99" width="536.853" height="89.0095" rx="44.5048" fill="#0E1221"/>
<rect x="783.661" y="90" width="286.856" height="47.9282" rx="23.9641" fill="#0E1221"/>
<rect x="878.212" y="125.756" width="97.7553" height="47.9282" rx="23.9641" fill="#0E1221"/>
<rect x="897.567" y="287" width="348.731" height="77.612" rx="38.806" fill="#0E1221"/>
<rect x="1017.9" y="359.179" width="174.366" height="43.4627" rx="21.7313" fill="#0E1221"/>
<rect x="934.405" y="364.612" width="120.337" height="38.0299" rx="19.0149" fill="#13192D"/>
<rect x="1161.16" y="364.612" width="120.337" height="38.0299" rx="19.0149" fill="#13192D"/>
<rect x="994.982" y="402.642" width="348.731" height="92.3582" rx="46.1791" fill="#0E1221"/>
<rect x="1374" y="440" width="273" height="92" rx="46" fill="#0E1221"/>
<rect x="1730" y="490" width="549" height="77" rx="38.5" fill="#0E1221"/>
<rect x="1762" y="542" width="138" height="77" rx="38.5" fill="#0E1221"/>
<rect x="1870" y="566" width="138" height="29" rx="14.5" fill="#13192D"/>
<rect x="1647" y="566" width="138" height="29" rx="14.5" fill="#13192D"/>
<rect x="2177" y="537" width="61" height="77" rx="30.5" fill="#0E1221"/>
<rect x="2225" y="566" width="138" height="25" rx="12.5" fill="#13192D"/>
<rect x="2059" y="567" width="138" height="24" rx="12" fill="#13192D"/>
<rect x="1568" y="595" width="549" height="77" rx="38.5" fill="#0E1221"/>
<rect x="2135" y="590" width="453" height="77" rx="38.5" fill="#0E1221"/>
<rect x="2151" y="383" width="473" height="54" rx="27" fill="#0E1221"/>
<rect x="1174.3" y="-17" width="368.475" height="81.8271" rx="40.9135" fill="#0E1221"/>
<rect x="-24.2588" y="633" width="440.873" height="98" rx="49" fill="#0E1221"/>
<rect x="474" y="670" width="595.73" height="132.33" rx="66.1651" fill="#0E1221"/>
<rect x="1358.54" y="59.0991" width="127.15" height="45.8232" rx="22.9116" fill="#0E1221"/>
<rect x="1268.58" y="64.8271" width="127.15" height="40.0953" rx="20.0476" fill="#13192D"/>
<rect x="1452.82" y="64.8271" width="127.15" height="40.0953" rx="20.0476" fill="#13192D"/>
<rect x="1129.61" y="105.177" width="368.475" height="45.8232" rx="22.9116" fill="#0E1221"/>
<rect x="1207" y="187" width="368" height="56" rx="28" fill="#0E1221"/>
<rect x="1397" y="216" width="98" height="101" rx="49" fill="#0E1221"/>
<rect x="1466" y="318" width="98" height="166" rx="49" fill="#0E1221"/>
<rect x="1345" y="243" width="84" height="60" rx="30" fill="#13192D"/>
<rect x="1453" y="243" width="95" height="59" rx="29.5" fill="#13192D"/>
<rect x="1402" y="354" width="100" height="86" rx="43" fill="#13192D"/>
<rect x="1520" y="354" width="100" height="86" rx="43" fill="#13192D"/>
<rect x="1348" y="302" width="287" height="56" rx="28" fill="#0E1221"/>
<rect x="1744" y="179" width="502" height="104" rx="52" fill="#0E1221"/>
<rect x="1830" y="277" width="195" height="64" rx="32" fill="#0E1221"/>
<rect x="1692" y="283" width="195" height="53" rx="26.5" fill="#13192D"/>
<rect x="1978" y="283" width="106" height="53" rx="26.5" fill="#13192D"/>
<rect x="1650" y="336" width="468" height="126" rx="63" fill="#0E1221"/>
<rect x="1059" y="565" width="468.296" height="104" rx="52" fill="#0E1221"/>
<rect x="1312.13" y="698" width="468.296" height="63" rx="31.5" fill="#0E1221"/>
<rect x="1364.87" y="638" width="114.965" height="82" rx="41" fill="#0E1221"/>
<rect x="1598" y="62" width="417" height="82" rx="41" fill="#0E1221"/>
<rect x="1260.45" y="669" width="127.621" height="30" rx="15" fill="#13192D"/>
<rect x="1446.08" y="666" width="127.621" height="32" rx="16" fill="#13192D"/>
<rect x="274" y="372" width="617" height="70" rx="35" fill="#0E1221"/>
<rect x="717.21" y="138" width="69.7107" height="22.823" rx="11.4115" fill="#13192D"/>
<rect x="831.12" y="137" width="69.7107" height="22.823" rx="11.4115" fill="#13192D"/>
<rect x="310" y="494" width="617" height="67" rx="33.5" fill="#0E1221"/>
<rect x="386.015" y="421.16" width="264.906" height="91.8959" rx="45.9479" fill="#0E1221"/>
<rect x="583.284" y="441.68" width="264.906" height="54.4238" rx="27.2119" fill="#13192D"/>
<rect x="951.127" y="137.928" width="58.4929" height="22.823" rx="11.4115" fill="#13192D"/>
<rect x="357.832" y="441.68" width="129.635" height="52.6394" rx="26.3197" fill="#13192D"/>
</g>
</svg>
